<?xml version="1.0" encoding="UTF-8"?> <svg xmlns="http://www.w3.org/2000/svg" xmlns:xlink="http://www.w3.org/1999/xlink" width="415px" height="394px" viewBox="0 0 415 394"><!-- Generator: Sketch 61 (89581) - https://sketch.com --><title>Group Copy</title><desc>Created with Sketch.</desc><g id="Folio-contents" stroke="none" stroke-width="1" fill="none" fill-rule="evenodd"><g id="ARENA-Folio" transform="translate(-875.000000, -853.000000)"><g id="Group-6" transform="translate(150.000000, 773.000000)"><g id="hero-project-copy"><g id="Group-Copy" transform="translate(725.000000, 80.000000)"><path d="M392.909607,380.378384 C432.891397,380.378384 465.423342,347.816696 465.423342,307.793298 C465.423342,267.765787 432.891397,235.199986 392.909607,235.199986 C352.927817,235.199986 320.399981,267.765787 320.399981,307.793298 C320.399981,347.816696 352.927817,380.378384 392.909607,380.378384" id="Fill-6" fill="#FFFFFF" style="mix-blend-mode: soft-light;" opacity="0.25"></path><path d="M111.670836,214.842111 C151.652625,214.842111 184.184571,182.280423 184.184571,142.257025 C184.184571,102.229514 151.652625,69.6637127 111.670836,69.6637127 C71.6890461,69.6637127 39.1612098,102.229514 39.1612098,142.257025 C39.1612098,182.280423 71.6890461,214.842111 111.670836,214.842111" id="Fill-6-Copy" fill="#FFFFFF" style="mix-blend-mode: soft-light;" opacity="0.25"></path><path d="M227.814019,380.873959 C267.795808,380.873959 300.327754,348.308158 300.327754,308.28476 C300.327754,268.257249 267.795808,235.695561 227.814019,235.695561 L72.5137351,235.695561 C32.5319454,235.695561 1.70530257e-13,268.257249 1.70530257e-13,308.28476 C1.70530257e-13,348.308158 32.5319454,380.873959 72.5137351,380.873959 L227.814019,380.873959 Z" id="Fill-8" fill="#FFFFFF" style="mix-blend-mode: soft-light;" opacity="0.15"></path><g id="ARENA" transform="translate(107.117427, 0.000000)"><g id="Group-30"><path d="M184.288046,211.754925 C224.363715,211.754925 256.851464,179.267176 256.851464,139.191507 L256.851464,0 L256.851464,0 L111.724628,0 L111.724628,139.191507 C111.724628,179.267176 144.212377,211.754925 184.288046,211.754925 Z" id="Fill-3" fill="#ECF9FF" transform="translate(184.288046, 105.877462) rotate(-180.000000) translate(-184.288046, -105.877462) "></path><path d="M92.0499844,212.649549 C142.887787,212.649549 184.099969,171.437367 184.099969,120.599565 L184.099969,71 L184.099969,71 L0,71 L0,120.599565 C2.04366899e-14,171.437367 41.2121818,212.649549 92.0499844,212.649549 Z" id="Fill-3-Copy-3" fill="#D7F3FD" transform="translate(92.049984, 141.824775) rotate(-180.000000) translate(-92.049984, -141.824775) "></path><path d="M112.004824,73 C153.386779,82.0125977 184.375375,118.858207 184.375375,162.94159 L184.375375,162.94159 L184.375375,212.541155 L112,212.541 L112.000035,73.478486 L112.000035,73.478486 Z" id="Combined-Shape" fill="#38C2F7" opacity="0.099999994"></path><path d="M219.101375,220.291689 C239.600489,220.291689 256.218304,203.673874 256.218304,183.17476 L256.218304,178.803529 L256.218304,178.803529 L181.984445,178.803529 L181.984445,183.17476 C181.984445,203.673874 198.602261,220.291689 219.101375,220.291689 Z" id="Fill-3-Copy-4" fill="#56CCBD" opacity="0.199999988" transform="translate(219.101375, 199.547609) rotate(-180.000000) translate(-219.101375, -199.547609) "></path><ellipse id="Oval-Copy" fill="#DA2E74" cx="254.559557" cy="91.8159237" rx="17.2770043" ry="17.4159282"></ellipse><path d="M195.314788,81.9777178 L187.58312,119.859713 L187.859217,119.976136 C192.082588,121.822949 195.029619,126.009492 195.029619,130.884131 C195.029619,131.588744 194.96002,132.265717 194.848654,132.935864 L238.372317,157.874275 C234.899119,166.288115 225.565212,170.709191 219.564806,165.901359 L190.365499,140.30686 C189.488486,140.976936 188.52092,141.529571 187.476929,141.944038 L192.16812,185.914713 L192.168221,185.797754 C195.800609,203.534072 206.079779,212.402231 223.005729,212.402231 L256.299703,212.402231 C256.299703,283.107686 198.925274,340.425155 128.149553,340.425155 C57.3744288,340.425155 0,283.107686 0,212.402231 L28.194,212.401713 L28.1943079,212.40132 L12.3978244,212.402231 C20.9518635,212.402231 27.576991,208.97361 32.2732068,202.116369 L35.9334608,192.885547 L24.4692186,189.383747 C21.8353811,188.58063 20.3558485,185.802865 21.1653089,183.189667 C21.952892,180.647096 24.6245434,179.188779 27.1944314,179.85149 L27.4083106,179.911648 L59.8767429,189.824737 C62.5172041,190.627854 63.9966688,193.398996 63.1872764,196.018817 C62.3932485,198.561388 59.7276935,200.019705 57.1520386,199.356994 L56.9376509,199.296836 L45.9245054,195.933214 L45.924,212.401713 L78.149,212.401713 L78.1493079,212.40132 L61.5426553,212.402231 C71.8722778,212.402231 79.3891009,207.402509 84.0931245,197.403065 L85.8829092,192.884873 L74.4252908,189.383073 C71.7848126,188.579956 70.3053479,185.802241 71.1213812,183.188993 C71.9089643,180.646422 74.574345,179.188105 77.1499952,179.850816 L77.3643829,179.910974 L109.832815,189.824063 C112.466653,190.62718 113.946117,193.398322 113.136725,196.018143 C112.349142,198.560714 109.67749,200.019031 107.107602,199.35632 L106.893723,199.296162 L95.8739538,195.93254 L95.873,212.401713 L141.982421,212.402231 C158.739112,212.402231 169.461662,202.467871 174.150071,182.599152 L174.290297,181.994029 L174.27512,182.299713 L178.581538,141.944038 C177.39131,141.474307 176.291494,140.818043 175.324123,140.009728 L131.80046,164.948139 C126.197408,157.763889 127.004768,147.526267 134.194921,144.770344 L171.127491,132.474268 C171.057874,131.949256 171.023074,131.424262 171.023074,130.885439 C171.023074,125.746026 174.308464,121.36633 178.902272,119.694632 L178.902272,69.8266531 C187.9787,68.6039424 196.505069,74.4205057 195.314788,81.9777178 Z" id="Combined-Shape" fill="#11384E"></path></g></g><g id="Group-3" transform="translate(107.117427, 264.722108)"><rect id="Rectangle-Copy-3" fill="#D7F3FD" x="0" y="11.6106188" width="49.5274124" height="33.6707945" rx="16.8353972"></rect><rect id="Rectangle" fill="#D7F3FD" x="186.882556" y="11.2778754" width="101.999994" height="59.2141558" rx="29.44128"></rect><rect id="Rectangle-Copy" fill="#FFFFFF" x="154.482558" y="0.477876078" width="63.3490158" height="30.1876088" rx="14.72064"></rect><ellipse id="Oval" fill-opacity="0.85" fill="#000000" style="mix-blend-mode: multiply;" opacity="0.1" cx="129.001632" cy="116.106188" rx="57.5900144" ry="12.7716807"></ellipse></g></g></g></g></g></g></svg> 