<svg xmlns="http://www.w3.org/2000/svg" width="148" height="148" viewBox="0 0 148 148">
  <defs>
    <style>
      .a {
        fill: #2b3739;
      }
    </style>
  </defs>
  <title>logo-vicgov</title>
  <g>
    <path class="a" d="M88.6,58.84a9.36,9.36,0,1,0,9.69,9.35,9.41,9.41,0,0,0-9.69-9.35m0,13.84a4.48,4.48,0,1,1,4.53-4.49,4.53,4.53,0,0,1-4.53,4.49"/>
    <path class="a" d="M115.75,65.76a6.55,6.55,0,0,0-6.82-6.51h-8.22V77.14h4.92V72.27h2.31l2.24,4.87h5.52l-3.06-6a6.47,6.47,0,0,0,3.11-5.37m-6.82,2.1h-3.3V63.64h3.3a2.12,2.12,0,0,1,1.83,2.12,2.09,2.09,0,0,1-1.83,2.1"/>
    <rect class="a" x="118.73" y="59.25" width="4.92" height="17.89"/>
    <path class="a" d="M135.71,59.24h-1.84l-8.29,17.89h5.27l.86-2h6.15l.86,2H144Zm-2.5,11.62,1.52-3.48h.1l1.52,3.48Z"/>
    <path class="a" d="M65.95,59.25,77.51,34.3H4l11.63,25.1h5.42L25.51,69,30,59.41h5.43L27.25,77H23.78l17,36.64L58.12,76.14a9.19,9.19,0,1,1,3.29-12.67l-4.1,2.46a4.46,4.46,0,0,0-3.77-2.16,4.41,4.41,0,1,0,3.77,6.66L60,72l3.9-8.41H68v13.5h4.92V63.64h4.94V59.25ZM41.89,77h-5V59.41h5Z"/>
    <path class="a" d="M73.61,86.7a4.81,4.81,0,0,0-2.54-.76c-1,0-1.71.4-1.71,1.07s.77.86,1.85,1l.5.08c1.6.26,2.85.95,2.85,2.51,0,2-1.74,2.92-3.66,2.92a6.23,6.23,0,0,1-3.77-1.17l.93-1.44a4.72,4.72,0,0,0,2.85,1c1,0,1.76-.39,1.76-1.08s-.65-.85-1.9-1l-.57-.09c-1.58-.25-2.73-.95-2.73-2.56,0-1.87,1.66-2.84,3.57-2.84a6.29,6.29,0,0,1,3.42,1Z"/>
    <path class="a" d="M80.16,88.68H77.92v2.26c0,.77.41,1.05.93,1.05A2.42,2.42,0,0,0,80,91.6l.61,1.3a3.46,3.46,0,0,1-2.05.65c-1.53,0-2.32-.87-2.32-2.47v-2.4h-1.2V87.2h1.2V85.36h1.67V87.2h2.24Z"/>
    <path class="a" d="M82.62,90.29a1.6,1.6,0,1,0,1.6-1.71,1.59,1.59,0,0,0-1.6,1.71m4.77,3.1H85.77v-.68a2.27,2.27,0,0,1-1.85.84,3.27,3.27,0,0,1,0-6.52,2.27,2.27,0,0,1,1.85.85V87.2H87.4Z"/>
    <path class="a" d="M93.38,88.68H91.14v2.26c0,.77.41,1.05.93,1.05a2.42,2.42,0,0,0,1.16-.4l.61,1.3a3.46,3.46,0,0,1-2.05.65c-1.53,0-2.32-.87-2.32-2.47v-2.4H88.28V87.2h1.19V85.36h1.67V87.2h2.24Z"/>
    <path class="a" d="M95.86,89.71h2.74a1.38,1.38,0,0,0-2.74,0m4.42.58a4.8,4.8,0,0,1,0,.56H95.86a1.5,1.5,0,0,0,1.59,1.28A2.51,2.51,0,0,0,99,91.54l1,1.07a3.76,3.76,0,0,1-2.64.94A3.26,3.26,0,0,1,97.27,87a3,3,0,0,1,3,3.25"/>
    <path class="a" d="M75.23,97.16l-1.29,1.26a2.92,2.92,0,1,0-2.19,5,2.3,2.3,0,0,0,2.54-2H72V99.93h4.12a4.53,4.53,0,0,1,0,.5,4.33,4.33,0,0,1-4.37,4.62,4.64,4.64,0,1,1,3.44-7.9"/>
    <path class="a" d="M78.7,101.8a1.65,1.65,0,1,0,1.64-1.71,1.62,1.62,0,0,0-1.64,1.71m5,0a3.35,3.35,0,1,1-3.36-3.26,3.22,3.22,0,0,1,3.36,3.26"/>
    <polygon class="a" points="88.24 104.9 86.31 104.9 83.87 98.7 85.68 98.7 87.29 103.14 88.9 98.7 90.66 98.7 88.24 104.9"/>
    <path class="a" d="M92.56,101.21H95.3a1.38,1.38,0,0,0-2.74,0m4.42.58a4.8,4.8,0,0,1,0,.56H92.55a1.49,1.49,0,0,0,1.59,1.28,2.51,2.51,0,0,0,1.57-.59l1,1.07a3.76,3.76,0,0,1-2.64.94A3.26,3.26,0,0,1,94,98.54a3,3,0,0,1,3,3.25"/>
    <path class="a" d="M102.31,98.67l-.25,1.66a2.7,2.7,0,0,0-1-.2,1.24,1.24,0,0,0-1.3,1.39v3.38H98.08V98.7H99.7v.68a2,2,0,0,1,1.74-.84,2.52,2.52,0,0,1,.87.14"/>
    <path class="a" d="M109,101v3.94h-1.67v-3.41c0-.9-.45-1.39-1.21-1.39a1.27,1.27,0,0,0-1.31,1.4v3.39h-1.67V98.7h1.62v.73a2.08,2.08,0,0,1,1.82-.89A2.31,2.31,0,0,1,109,101"/>
    <path class="a" d="M120.53,101v3.94h-1.66v-3.41c0-.9-.45-1.39-1.21-1.39a1.27,1.27,0,0,0-1.31,1.4v3.39h-1.67v-3.41c0-.9-.45-1.39-1.21-1.39a1.27,1.27,0,0,0-1.31,1.4v3.39h-1.67V98.7h1.62v.73a2.08,2.08,0,0,1,1.82-.89,2.34,2.34,0,0,1,2,1.06,2.33,2.33,0,0,1,2.1-1.06,2.31,2.31,0,0,1,2.44,2.42"/>
    <path class="a" d="M123.31,101.21h2.74a1.38,1.38,0,0,0-2.74,0m4.42.58a4.8,4.8,0,0,1,0,.56h-4.39a1.49,1.49,0,0,0,1.59,1.28,2.51,2.51,0,0,0,1.57-.59l1,1.07a3.76,3.76,0,0,1-2.64.94,3.26,3.26,0,0,1-.08-6.52,3,3,0,0,1,3,3.25"/>
    <path class="a" d="M134.69,101v3.94H133v-3.41c0-.9-.45-1.39-1.21-1.39a1.27,1.27,0,0,0-1.31,1.4v3.39h-1.67V98.7h1.62v.73a2.08,2.08,0,0,1,1.82-.89,2.31,2.31,0,0,1,2.41,2.42"/>
    <path class="a" d="M140.56,100.18h-2.24v2.26c0,.77.41,1.05.93,1.05a2.42,2.42,0,0,0,1.16-.4l.61,1.3a3.46,3.46,0,0,1-2.05.65c-1.53,0-2.32-.87-2.32-2.47v-2.4h-1.2V98.7h1.2V96.86h1.67V98.7h2.24Z"/>
  </g>
</svg>
